<mxfile host="Electron" modified="2024-07-30T13:58:12.398Z" agent="Mozilla/5.0 (Windows NT 10.0; Win64; x64) AppleWebKit/537.36 (KHTML, like Gecko) draw.io/24.0.4 Chrome/120.0.6099.109 Electron/28.1.0 Safari/537.36" etag="I6hgMxg0AAImUXRAqlAv" version="24.0.4" type="device">
  <diagram name="Page-1" id="Ssaea9icLMHBLdKSoYww">
    <mxGraphModel dx="1050" dy="629" grid="1" gridSize="10" guides="1" tooltips="1" connect="1" arrows="1" fold="1" page="1" pageScale="1" pageWidth="850" pageHeight="1100" math="0" shadow="0">
      <root>
        <mxCell id="0" />
        <mxCell id="1" parent="0" />
        <mxCell id="n_p2kRu5CTq_T7OHrE7E-1" value="Map bảng điểm sinh viên" style="swimlane;whiteSpace=wrap;html=1;" vertex="1" parent="1">
          <mxGeometry x="120" y="110" width="600" height="460" as="geometry" />
        </mxCell>
        <mxCell id="n_p2kRu5CTq_T7OHrE7E-2" value="Keys (Mã sinh viên)" style="swimlane;whiteSpace=wrap;html=1;" vertex="1" parent="n_p2kRu5CTq_T7OHrE7E-1">
          <mxGeometry x="40" y="60" width="200" height="370" as="geometry" />
        </mxCell>
        <mxCell id="n_p2kRu5CTq_T7OHrE7E-4" value="2108110118" style="rounded=0;whiteSpace=wrap;html=1;" vertex="1" parent="n_p2kRu5CTq_T7OHrE7E-2">
          <mxGeometry x="40" y="50" width="120" height="60" as="geometry" />
        </mxCell>
        <mxCell id="n_p2kRu5CTq_T7OHrE7E-8" value="2108110320" style="rounded=0;whiteSpace=wrap;html=1;" vertex="1" parent="n_p2kRu5CTq_T7OHrE7E-2">
          <mxGeometry x="40" y="270" width="120" height="60" as="geometry" />
        </mxCell>
        <mxCell id="n_p2kRu5CTq_T7OHrE7E-3" value="Values (Điểm)" style="swimlane;whiteSpace=wrap;html=1;" vertex="1" parent="n_p2kRu5CTq_T7OHrE7E-1">
          <mxGeometry x="370" y="60" width="200" height="370" as="geometry" />
        </mxCell>
        <mxCell id="n_p2kRu5CTq_T7OHrE7E-5" value="8" style="rounded=0;whiteSpace=wrap;html=1;" vertex="1" parent="n_p2kRu5CTq_T7OHrE7E-3">
          <mxGeometry x="40" y="50" width="120" height="60" as="geometry" />
        </mxCell>
        <mxCell id="n_p2kRu5CTq_T7OHrE7E-6" value="2108110119" style="rounded=0;whiteSpace=wrap;html=1;" vertex="1" parent="n_p2kRu5CTq_T7OHrE7E-3">
          <mxGeometry x="-290" y="160" width="120" height="60" as="geometry" />
        </mxCell>
        <mxCell id="n_p2kRu5CTq_T7OHrE7E-7" value="10" style="rounded=0;whiteSpace=wrap;html=1;" vertex="1" parent="n_p2kRu5CTq_T7OHrE7E-3">
          <mxGeometry x="40" y="160" width="120" height="60" as="geometry" />
        </mxCell>
        <mxCell id="n_p2kRu5CTq_T7OHrE7E-9" value="5" style="rounded=0;whiteSpace=wrap;html=1;" vertex="1" parent="n_p2kRu5CTq_T7OHrE7E-3">
          <mxGeometry x="40" y="270" width="120" height="60" as="geometry" />
        </mxCell>
        <mxCell id="n_p2kRu5CTq_T7OHrE7E-11" value="" style="endArrow=classic;html=1;rounded=0;" edge="1" parent="n_p2kRu5CTq_T7OHrE7E-3" source="n_p2kRu5CTq_T7OHrE7E-6" target="n_p2kRu5CTq_T7OHrE7E-7">
          <mxGeometry width="50" height="50" relative="1" as="geometry">
            <mxPoint x="-90" y="180" as="sourcePoint" />
            <mxPoint x="-40" y="130" as="targetPoint" />
          </mxGeometry>
        </mxCell>
        <mxCell id="n_p2kRu5CTq_T7OHrE7E-10" value="" style="endArrow=classic;html=1;rounded=0;" edge="1" parent="n_p2kRu5CTq_T7OHrE7E-1" source="n_p2kRu5CTq_T7OHrE7E-4" target="n_p2kRu5CTq_T7OHrE7E-5">
          <mxGeometry width="50" height="50" relative="1" as="geometry">
            <mxPoint x="280" y="240" as="sourcePoint" />
            <mxPoint x="330" y="190" as="targetPoint" />
          </mxGeometry>
        </mxCell>
        <mxCell id="n_p2kRu5CTq_T7OHrE7E-12" value="" style="endArrow=classic;html=1;rounded=0;" edge="1" parent="n_p2kRu5CTq_T7OHrE7E-1" source="n_p2kRu5CTq_T7OHrE7E-8" target="n_p2kRu5CTq_T7OHrE7E-9">
          <mxGeometry width="50" height="50" relative="1" as="geometry">
            <mxPoint x="280" y="240" as="sourcePoint" />
            <mxPoint x="330" y="190" as="targetPoint" />
          </mxGeometry>
        </mxCell>
      </root>
    </mxGraphModel>
  </diagram>
</mxfile>
